<?xml version="1.0" encoding="utf-8"?>
<!-- Generator: Adobe Illustrator 25.0.0, SVG Export Plug-In . SVG Version: 6.00 Build 0)  -->
<svg version="1.1" id="Layer_1" xmlns="http://www.w3.org/2000/svg" xmlns:xlink="http://www.w3.org/1999/xlink" x="0px" y="0px"
	 viewBox="0 0 35.2 35.2" style="enable-background:new 0 0 35.2 35.2;" xml:space="preserve">
<style type="text/css">
	.st0{fill:#FFFFFF;}
</style>
<g id="logo">
	<path class="st0" d="M19.9,2.7c0,1.4-1.2,2.6-2.6,2.6c-1.4,0-2.6-1.2-2.6-2.6c0-1.4,1.2-2.6,2.6-2.6C18.8,0.1,19.9,1.3,19.9,2.7z"
		/>
	<path class="st0" d="M25.2,4.6c-0.5,1.3-2,2-3.3,1.5c-1.3-0.5-2-2-1.5-3.3c0.5-1.3,2-2,3.3-1.5C25,1.7,25.7,3.2,25.2,4.6z"/>
	<path class="st0" d="M29.4,8.2c-1,1.1-2.6,1.1-3.6,0.2c-1.1-1-1.1-2.6-0.2-3.6c1-1.1,2.6-1.1,3.6-0.2C30.3,5.5,30.4,7.1,29.4,8.2z"
		/>
	<path class="st0" d="M32.1,13.1c-1.3,0.6-2.8,0.1-3.5-1.2c-0.6-1.3-0.1-2.8,1.2-3.5c1.3-0.6,2.8-0.1,3.5,1.2
		C33.9,10.9,33.3,12.4,32.1,13.1z"/>
	<path class="st0" d="M32.8,18.6c-1.4,0.1-2.7-0.9-2.8-2.3c-0.1-1.4,0.9-2.7,2.3-2.8c1.4-0.1,2.7,0.9,2.8,2.3
		C35.2,17.2,34.2,18.4,32.8,18.6z"/>
	<path class="st0" d="M31.4,24c-1.4-0.4-2.2-1.8-1.8-3.2c0.4-1.4,1.8-2.2,3.2-1.8c1.4,0.4,2.2,1.8,1.8,3.2
		C34.2,23.6,32.8,24.4,31.4,24z"/>
	<path class="st0" d="M28.2,28.5c-1.1-0.9-1.4-2.5-0.5-3.6c0.9-1.1,2.5-1.4,3.6-0.5c1.1,0.9,1.4,2.5,0.5,3.6
		C31,29.2,29.4,29.4,28.2,28.5z"/>
	<path class="st0" d="M23.6,31.6c-0.8-1.2-0.4-2.8,0.8-3.6c1.2-0.8,2.8-0.4,3.6,0.8c0.8,1.2,0.4,2.8-0.8,3.6
		C25.9,33.2,24.3,32.8,23.6,31.6z"/>
	<path class="st0" d="M18.2,32.8c-0.3-1.4,0.7-2.8,2.1-3c1.4-0.3,2.8,0.7,3,2.1c0.3,1.4-0.7,2.7-2.1,3
		C19.8,35.2,18.4,34.2,18.2,32.8z"/>
	<path class="st0" d="M12.7,32c0.3-1.4,1.6-2.3,3-2.1c1.4,0.3,2.3,1.6,2.1,3c-0.3,1.4-1.6,2.3-3,2.1C13.3,34.8,12.4,33.4,12.7,32z"
		/>
	<path class="st0" d="M7.8,29.3c0.7-1.2,2.3-1.6,3.6-0.8c1.2,0.7,1.6,2.3,0.8,3.6c-0.7,1.2-2.3,1.6-3.6,0.8
		C7.5,32.1,7.1,30.5,7.8,29.3z"/>
	<path class="st0" d="M4.3,24.9c1.1-0.9,2.8-0.6,3.6,0.5c0.9,1.1,0.6,2.8-0.5,3.6c-1.1,0.9-2.8,0.6-3.6-0.5
		C3,27.4,3.2,25.8,4.3,24.9z"/>
	<path class="st0" d="M2.6,19.6C4,19.2,5.4,20,5.8,21.4c0.4,1.4-0.4,2.8-1.8,3.2c-1.4,0.4-2.8-0.4-3.2-1.8C0.4,21.5,1.2,20,2.6,19.6
		z"/>
	<path class="st0" d="M2.9,14.1c1.4,0.1,2.5,1.4,2.3,2.8c-0.1,1.4-1.4,2.5-2.8,2.3C1,19.1,0,17.8,0.1,16.4C0.2,15,1.5,14,2.9,14.1z"
		/>
	<path class="st0" d="M5.2,9c1.3,0.6,1.8,2.2,1.2,3.5c-0.6,1.3-2.2,1.8-3.5,1.2c-1.3-0.6-1.8-2.2-1.2-3.5C2.4,8.9,3.9,8.4,5.2,9z"/>
	<path class="st0" d="M9.2,5.1c1,1,0.9,2.7-0.2,3.6C8,9.7,6.3,9.7,5.4,8.6c-1-1-0.9-2.7,0.2-3.6C6.6,4,8.2,4.1,9.2,5.1z"/>
	<path class="st0" d="M14.3,2.9c0.5,1.3-0.1,2.8-1.5,3.3C11.5,6.8,10,6.1,9.5,4.8C9,3.5,9.6,2,10.9,1.5C12.3,0.9,13.8,1.6,14.3,2.9z
		"/>
	<path class="st0" d="M16.9,7.4c0.4,1.1-0.1,2.2-1.2,2.7c-1.1,0.4-2.2-0.1-2.7-1.2c-0.4-1.1,0.1-2.2,1.2-2.7
		C15.3,5.8,16.5,6.3,16.9,7.4z"/>
	<path class="st0" d="M21.4,8.1c-0.1,1.1-1.1,2-2.2,1.9c-1.1-0.1-2-1.1-1.9-2.2c0.1-1.1,1.1-2,2.2-1.9C20.7,6,21.5,7,21.4,8.1z"/>
	<path class="st0" d="M25.2,10.7c-0.6,1-1.8,1.3-2.8,0.8c-1-0.6-1.3-1.8-0.8-2.8c0.6-1,1.8-1.3,2.8-0.8C25.4,8.4,25.8,9.7,25.2,10.7
		z"/>
	<path class="st0" d="M27.5,14.6c-0.9,0.7-2.2,0.4-2.9-0.5c-0.7-0.9-0.4-2.2,0.5-2.9c0.9-0.7,2.2-0.4,2.9,0.5
		C28.7,12.7,28.4,14,27.5,14.6z"/>
	<path class="st0" d="M27.9,19.2c-1.1,0.2-2.2-0.6-2.4-1.7c-0.2-1.1,0.6-2.2,1.7-2.4c1.1-0.2,2.2,0.6,2.4,1.7
		C29.8,17.9,29,19,27.9,19.2z"/>
	<path class="st0" d="M26.3,23.4c-1.1-0.3-1.7-1.4-1.4-2.5c0.3-1.1,1.4-1.7,2.5-1.4c1.1,0.3,1.7,1.4,1.4,2.5
		C28.5,23.1,27.4,23.7,26.3,23.4z"/>
	<path class="st0" d="M23,26.6c-0.9-0.7-0.9-2-0.2-2.9c0.7-0.9,2-0.9,2.9-0.2c0.9,0.7,0.9,2,0.2,2.9C25.2,27.3,23.9,27.4,23,26.6z"
		/>
	<path class="st0" d="M18.7,28.1c-0.5-1,0-2.2,1.1-2.7c1-0.4,2.2,0,2.7,1.1c0.4,1,0,2.2-1.1,2.7C20.3,29.6,19.1,29.1,18.7,28.1z"/>
	<path class="st0" d="M14.1,27.5c0-1.1,1-2,2.1-2c1.1,0,2,1,2,2.1c0,1.1-1,2-2.1,2C15,29.6,14.1,28.6,14.1,27.5z"/>
	<path class="st0" d="M10.3,25.1c0.5-1,1.8-1.4,2.8-0.9c1,0.5,1.4,1.8,0.9,2.8c-0.5,1-1.8,1.4-2.8,0.9C10.2,27.3,9.8,26.1,10.3,25.1
		z"/>
	<path class="st0" d="M7.9,21.2c0.9-0.7,2.2-0.5,2.9,0.4c0.7,0.9,0.5,2.2-0.4,2.9c-0.9,0.7-2.2,0.5-2.9-0.4
		C6.8,23.2,7,21.9,7.9,21.2z"/>
	<path class="st0" d="M7.2,16.5c1.1-0.2,2.2,0.5,2.4,1.6c0.2,1.1-0.5,2.2-1.6,2.4c-1.1,0.2-2.2-0.5-2.4-1.6
		C5.4,17.8,6.1,16.7,7.2,16.5z"/>
	<path class="st0" d="M8.9,12c1.1,0.3,1.8,1.4,1.5,2.5C10.1,15.6,9,16.3,7.9,16c-1.1-0.3-1.8-1.4-1.5-2.5C6.7,12.4,7.8,11.8,8.9,12z
		"/>
	<path class="st0" d="M12.3,8.8c0.9,0.7,1,2,0.3,2.9c-0.7,0.9-2,1-2.9,0.3c-0.9-0.7-1-2-0.3-2.9C10.1,8.2,11.4,8,12.3,8.8z"/>
	<path class="st0" d="M16.1,11.9c0.3,0.7-0.1,1.6-0.9,1.8c-0.7,0.3-1.6-0.1-1.8-0.9c-0.3-0.7,0.1-1.6,0.9-1.8
		C15,10.7,15.8,11.1,16.1,11.9z"/>
	<path class="st0" d="M19.4,12c-0.2,0.8-1,1.2-1.7,1c-0.8-0.2-1.2-1-1-1.7c0.2-0.8,1-1.2,1.7-1C19.2,10.4,19.6,11.2,19.4,12z"/>
	<path class="st0" d="M22.2,13.8c-0.6,0.5-1.5,0.5-2,0c-0.5-0.6-0.5-1.5,0-2c0.6-0.5,1.5-0.5,2,0C22.8,12.4,22.8,13.3,22.2,13.8z"/>
	<path class="st0" d="M23.6,16.9c-0.8,0.2-1.5-0.3-1.7-1.1c-0.2-0.8,0.3-1.5,1.1-1.7c0.8-0.2,1.5,0.3,1.7,1.1
		C24.9,16,24.4,16.7,23.6,16.9z"/>
	<path class="st0" d="M23.1,20.2c-0.7-0.3-1.1-1.1-0.8-1.8c0.3-0.7,1.1-1.1,1.8-0.8c0.7,0.3,1.1,1.1,0.8,1.8
		C24.7,20.1,23.8,20.5,23.1,20.2z"/>
	<path class="st0" d="M20.9,22.7c-0.5-0.6-0.3-1.5,0.3-2c0.6-0.5,1.5-0.3,2,0.3c0.5,0.6,0.3,1.5-0.3,2
		C22.2,23.5,21.4,23.4,20.9,22.7z"/>
	<path class="st0" d="M17.7,23.7c0-0.8,0.5-1.5,1.3-1.5c0.8,0,1.5,0.5,1.5,1.3c0,0.8-0.5,1.5-1.3,1.5C18.4,25.1,17.7,24.5,17.7,23.7
		z"/>
	<path class="st0" d="M14.4,22.7c0.4-0.7,1.2-0.9,1.9-0.6c0.7,0.4,0.9,1.2,0.6,1.9c-0.4,0.7-1.2,0.9-1.9,0.6
		C14.3,24.3,14.1,23.4,14.4,22.7z"/>
	<path class="st0" d="M12.2,20.2c0.7-0.4,1.6-0.1,1.9,0.6c0.4,0.7,0.1,1.6-0.6,1.9c-0.7,0.4-1.6,0.1-1.9-0.6
		C11.3,21.5,11.5,20.6,12.2,20.2z"/>
	<path class="st0" d="M11.7,16.9c0.8,0.1,1.4,0.7,1.3,1.5c-0.1,0.8-0.7,1.4-1.5,1.3c-0.8-0.1-1.4-0.7-1.3-1.5
		C10.2,17.4,10.9,16.8,11.7,16.9z"/>
	<path class="st0" d="M13.1,13.8c0.6,0.5,0.8,1.4,0.3,2c-0.5,0.6-1.4,0.8-2,0.3c-0.6-0.5-0.8-1.4-0.3-2
		C11.5,13.5,12.4,13.3,13.1,13.8z"/>
	<path class="st0" d="M16.6,14.8c0.5,0.4,0.6,1.2,0.2,1.7c-0.4,0.5-1.2,0.6-1.7,0.2c-0.5-0.4-0.6-1.2-0.2-1.7
		C15.3,14.4,16.1,14.4,16.6,14.8z"/>
	<path class="st0" d="M19.6,15.3c-0.1,0.6-0.7,1.1-1.4,1c-0.6-0.1-1.1-0.7-1-1.4c0.1-0.6,0.7-1.1,1.4-1C19.3,14,19.7,14.6,19.6,15.3
		z"/>
	<path class="st0" d="M20.7,18.2c-0.6,0.2-1.3-0.1-1.5-0.7c-0.2-0.6,0.1-1.3,0.7-1.5c0.6-0.2,1.3,0.1,1.5,0.7
		C21.7,17.3,21.4,18,20.7,18.2z"/>
	<path class="st0" d="M18.8,20.6c-0.5-0.4-0.6-1.2-0.2-1.7c0.4-0.5,1.2-0.6,1.7-0.2c0.5,0.4,0.6,1.2,0.2,1.7
		C20,21,19.3,21,18.8,20.6z"/>
	<path class="st0" d="M15.7,20.1c0.1-0.6,0.7-1.1,1.4-1c0.6,0.1,1.1,0.7,1,1.4c-0.1,0.6-0.7,1.1-1.4,1C16,21.4,15.6,20.8,15.7,20.1z
		"/>
	<path class="st0" d="M14.6,17.2c0.6-0.2,1.3,0.1,1.5,0.7c0.2,0.6-0.1,1.3-0.7,1.5c-0.6,0.2-1.3-0.1-1.5-0.7
		C13.7,18.1,14,17.4,14.6,17.2z"/>
	<path class="st0" d="M18.3,16.9c0.4,0.4,0.5,1,0.1,1.4c-0.4,0.4-1,0.5-1.4,0.1c-0.4-0.4-0.5-1-0.1-1.4
		C17.2,16.6,17.9,16.6,18.3,16.9z"/>
</g>
</svg>
